<?xml version="1.0" standalone="no"?>
<!DOCTYPE svg PUBLIC "-//W3C//DTD SVG 20010904//EN"
 "http://www.w3.org/TR/2001/REC-SVG-20010904/DTD/svg10.dtd">
<svg version="1.0" xmlns="http://www.w3.org/2000/svg"
 width="300.000000pt" height="300.000000pt" viewBox="0 0 300.000000 300.000000"
 preserveAspectRatio="xMidYMid meet">
<metadata>
Created by potrace 1.11, written by Peter Selinger 2001-2013
</metadata>
<g transform="translate(0.000000,300.000000) scale(0.100000,-0.100000)"
fill="#000000" stroke="none">
<path d="M652 2343 l3 -48 50 -7 c67 -10 114 -30 145 -63 l25 -27 3 -699 c3
-758 4 -738 -51 -773 -16 -11 -153 -36 -194 -36 -2 0 -3 -21 -3 -46 l0 -45
478 3 477 4 98 26 c123 34 269 103 359 169 232 173 352 469 319 788 -24 229
-99 399 -238 538 -104 103 -256 187 -431 236 -73 20 -102 21 -560 25 l-483 3
3 -48z m887 -78 c104 -25 196 -79 287 -170 67 -66 89 -96 127 -175 72 -149 91
-241 91 -445 -1 -208 -22 -323 -83 -449 -90 -187 -236 -290 -446 -316 -169
-21 -300 15 -336 93 -18 40 -19 76 -19 759 l0 717 68 4 c103 7 240 -2 311 -18z"/>
</g>
</svg>
